<svg xmlns="http://www.w3.org/2000/svg" xmlns="http://www.w3.org/2000/svg" viewBox="0 0 1024 1024" width="1024" height="1024">
  <g transform="translate(20.0000,34.9091) scale(0.931818)">
    <path d="M29.204991 29.204991h29.204991v29.204991H29.204991z m29.204991 0h29.204991v29.204991H58.409982z" fill="#FFECCB" p-id="2320"></path><path d="M87.614973 29.204991h29.204991v29.204991H87.614973z" fill="#A3595B" p-id="2321"></path><path d="M116.819964 29.204991h29.204991v29.204991H116.819964z m29.204991 0h29.204992v29.204991H146.024955z m29.204992 0h29.204991v29.204991H175.229947z m29.204991 0h29.204991v29.204991H204.434938z m29.204991 0h29.204991v29.204991H233.639929z m29.204991 0h29.204991v29.204991H262.84492z m29.204991 0h29.204991v29.204991h-29.204991z m29.204991 0h29.204991v29.204991h-29.204991z m29.204991 0h29.204991v29.204991h-29.204991z m29.204991 0h29.204991v29.204991h-29.204991z m29.204991 0h29.204991v29.204991h-29.204991z m29.204991 0h29.204991v29.204991h-29.204991z m29.204991 0h29.204991v29.204991h-29.204991z m29.204991 0h29.204992v29.204991h-29.204992z m29.204992 0h29.204991v29.204991h-29.204991z m29.204991 0h29.204991v29.204991h-29.204991z m29.204991 0h29.204991v29.204991h-29.204991z m29.204991 0h29.204991v29.204991h-29.204991z m29.204991 0h29.204991v29.204991h-29.204991z m29.204991 0h29.204991v29.204991h-29.204991z" fill="#FFE0D6" p-id="2322"></path><path d="M700.919786 29.204991h29.204991v29.204991h-29.204991z" fill="#FF758C" p-id="2323"></path><path d="M730.124777 29.204991h29.204991v29.204991h-29.204991z" fill="#FF9FAF" p-id="2324"></path><path d="M759.329768 29.204991h29.204991v29.204991h-29.204991z m29.204991 0h29.204991v29.204991h-29.204991z m29.204991 0h29.204992v29.204991h-29.204992z" fill="#FFE0D6" p-id="2325"></path><path d="M846.944742 29.204991h29.204991v29.204991h-29.204991z m29.204991 0h29.204991v29.204991h-29.204991z m29.204991 0h29.204991v29.204991h-29.204991z m29.204991 0h29.204991v29.204991h-29.204991z" fill="#DEAEA0" p-id="2326"></path><path d="M29.204991 58.409982h29.204991v29.204991H29.204991z" fill="#FFECCB" p-id="2327"></path><path d="M58.409982 58.409982h29.204991v29.204991H58.409982z" fill="#A3595B" p-id="2328"></path><path d="M87.614973 58.409982h29.204991v29.204991H87.614973z m29.204991 0h29.204991v29.204991H116.819964z m29.204991 0h29.204992v29.204991H146.024955z m29.204992 0h29.204991v29.204991H175.229947z m29.204991 0h29.204991v29.204991H204.434938z m29.204991 0h29.204991v29.204991H233.639929z m29.204991 0h29.204991v29.204991H262.84492z m29.204991 0h29.204991v29.204991h-29.204991z m29.204991 0h29.204991v29.204991h-29.204991z m29.204991 0h29.204991v29.204991h-29.204991z m29.204991 0h29.204991v29.204991h-29.204991z m29.204991 0h29.204991v29.204991h-29.204991z m29.204991 0h29.204991v29.204991h-29.204991z m29.204991 0h29.204991v29.204991h-29.204991z m29.204991 0h29.204992v29.204991h-29.204992z m29.204992 0h29.204991v29.204991h-29.204991z m29.204991 0h29.204991v29.204991h-29.204991z m29.204991 0h29.204991v29.204991h-29.204991z m29.204991 0h29.204991v29.204991h-29.204991z m29.204991 0h29.204991v29.204991h-29.204991z m29.204991 0h29.204991v29.204991h-29.204991z" fill="#FFE0D6" p-id="2329"></path><path d="M700.919786 58.409982h29.204991v29.204991h-29.204991z" fill="#FF758C" p-id="2330"></path><path d="M730.124777 58.409982h29.204991v29.204991h-29.204991z m29.204991 0h29.204991v29.204991h-29.204991z" fill="#FF9FAF" p-id="2331"></path><path d="M788.534759 58.409982h29.204991v29.204991h-29.204991z m29.204991 0h29.204992v29.204991h-29.204992z m29.204992 0h29.204991v29.204991h-29.204991z m29.204991 0h29.204991v29.204991h-29.204991z" fill="#FFE0D6" p-id="2332"></path><path d="M905.354724 58.409982h29.204991v29.204991h-29.204991z m29.204991 0h29.204991v29.204991h-29.204991z" fill="#DEAEA0" p-id="2333"></path><path d="M29.204991 87.614973h29.204991v29.204991H29.204991z" fill="#FFECCB" p-id="2334"></path><path d="M58.409982 87.614973h29.204991v29.204991H58.409982z" fill="#A3595B" p-id="2335"></path><path d="M87.614973 87.614973h29.204991v29.204991H87.614973z m29.204991 0h29.204991v29.204991H116.819964z m29.204991 0h29.204992v29.204991H146.024955z m29.204992 0h29.204991v29.204991H175.229947z m29.204991 0h29.204991v29.204991H204.434938z m29.204991 0h29.204991v29.204991H233.639929z m29.204991 0h29.204991v29.204991H262.84492z m29.204991 0h29.204991v29.204991h-29.204991z m29.204991 0h29.204991v29.204991h-29.204991z m29.204991 0h29.204991v29.204991h-29.204991z m29.204991 0h29.204991v29.204991h-29.204991z m29.204991 0h29.204991v29.204991h-29.204991z m29.204991 0h29.204991v29.204991h-29.204991z m29.204991 0h29.204991v29.204991h-29.204991z m29.204991 0h29.204992v29.204991h-29.204992z m29.204992 0h29.204991v29.204991h-29.204991z m29.204991 0h29.204991v29.204991h-29.204991z m29.204991 0h29.204991v29.204991h-29.204991z m29.204991 0h29.204991v29.204991h-29.204991z m29.204991 0h29.204991v29.204991h-29.204991z m29.204991 0h29.204991v29.204991h-29.204991z" fill="#FFE0D6" p-id="2336"></path><path d="M700.919786 87.614973h29.204991v29.204991h-29.204991z" fill="#FF758C" p-id="2337"></path><path d="M730.124777 87.614973h29.204991v29.204991h-29.204991z m29.204991 0h29.204991v29.204991h-29.204991z m29.204991 0h29.204991v29.204991h-29.204991z" fill="#FF9FAF" p-id="2338"></path><path d="M817.73975 87.614973h29.204992v29.204991h-29.204992z m29.204992 0h29.204991v29.204991h-29.204991z m29.204991 0h29.204991v29.204991h-29.204991z m29.204991 0h29.204991v29.204991h-29.204991z" fill="#FFE0D6" p-id="2339"></path><path d="M934.559715 87.614973h29.204991v29.204991h-29.204991z" fill="#DEAEA0" p-id="2340"></path><path d="M29.204991 116.819964h29.204991v29.204991H29.204991z" fill="#A3595B" p-id="2341"></path><path d="M58.409982 116.819964h29.204991v29.204991H58.409982z m29.204991 0h29.204991v29.204991H87.614973z m29.204991 0h29.204991v29.204991H116.819964z m29.204991 0h29.204992v29.204991H146.024955z m29.204992 0h29.204991v29.204991H175.229947z m29.204991 0h29.204991v29.204991H204.434938z m29.204991 0h29.204991v29.204991H233.639929z m29.204991 0h29.204991v29.204991H262.84492z m29.204991 0h29.204991v29.204991h-29.204991z m29.204991 0h29.204991v29.204991h-29.204991z m29.204991 0h29.204991v29.204991h-29.204991z m29.204991 0h29.204991v29.204991h-29.204991z m29.204991 0h29.204991v29.204991h-29.204991z m29.204991 0h29.204991v29.204991h-29.204991z m29.204991 0h29.204991v29.204991h-29.204991z m29.204991 0h29.204992v29.204991h-29.204992z m29.204992 0h29.204991v29.204991h-29.204991z m29.204991 0h29.204991v29.204991h-29.204991z m29.204991 0h29.204991v29.204991h-29.204991z m29.204991 0h29.204991v29.204991h-29.204991z m29.204991 0h29.204991v29.204991h-29.204991z m29.204991 0h29.204991v29.204991h-29.204991z" fill="#FFE0D6" p-id="2342"></path><path d="M700.919786 116.819964h29.204991v29.204991h-29.204991z m29.204991 0h29.204991v29.204991h-29.204991z" fill="#FF758C" p-id="2343"></path><path d="M759.329768 116.819964h29.204991v29.204991h-29.204991z m29.204991 0h29.204991v29.204991h-29.204991z m29.204991 0h29.204992v29.204991h-29.204992z m29.204992 0h29.204991v29.204991h-29.204991z m29.204991 0h29.204991v29.204991h-29.204991z m29.204991 0h29.204991v29.204991h-29.204991z" fill="#FF9FAF" p-id="2344"></path><path d="M934.559715 116.819964h29.204991v29.204991h-29.204991z" fill="#DEAEA0" p-id="2345"></path><path d="M29.204991 146.024955h29.204991v29.204992H29.204991z" fill="#A3595B" p-id="2346"></path><path d="M58.409982 146.024955h29.204991v29.204992H58.409982z m29.204991 0h29.204991v29.204992H87.614973z m29.204991 0h29.204991v29.204992H116.819964z m29.204991 0h29.204992v29.204992H146.024955z m29.204992 0h29.204991v29.204992H175.229947z m29.204991 0h29.204991v29.204992H204.434938z m29.204991 0h29.204991v29.204992H233.639929z m29.204991 0h29.204991v29.204992H262.84492z m29.204991 0h29.204991v29.204992h-29.204991z m29.204991 0h29.204991v29.204992h-29.204991z m29.204991 0h29.204991v29.204992h-29.204991z m29.204991 0h29.204991v29.204992h-29.204991z m29.204991 0h29.204991v29.204992h-29.204991z m29.204991 0h29.204991v29.204992h-29.204991z m29.204991 0h29.204991v29.204992h-29.204991z m29.204991 0h29.204992v29.204992h-29.204992z m29.204992 0h29.204991v29.204992h-29.204991z m29.204991 0h29.204991v29.204992h-29.204991z m29.204991 0h29.204991v29.204992h-29.204991z m29.204991 0h29.204991v29.204992h-29.204991z m29.204991 0h29.204991v29.204992h-29.204991z" fill="#FFE0D6" p-id="2347"></path><path d="M671.714795 146.024955h29.204991v29.204992h-29.204991z m29.204991 0h29.204991v29.204992h-29.204991z m29.204991 0h29.204991v29.204992h-29.204991z m29.204991 0h29.204991v29.204992h-29.204991z" fill="#FF758C" p-id="2348"></path><path d="M788.534759 146.024955h29.204991v29.204992h-29.204991z" fill="#FF9FAF" p-id="2349"></path><path d="M817.73975 146.024955h29.204992v29.204992h-29.204992z m29.204992 0h29.204991v29.204992h-29.204991z m29.204991 0h29.204991v29.204992h-29.204991z" fill="#FF758C" p-id="2350"></path><path d="M905.354724 146.024955h29.204991v29.204992h-29.204991z m29.204991 0h29.204991v29.204992h-29.204991z" fill="#FFE0D6" p-id="2351"></path><path d="M29.204991 175.229947h29.204991v29.204991H29.204991z" fill="#A3595B" p-id="2352"></path><path d="M58.409982 175.229947h29.204991v29.204991H58.409982z m29.204991 0h29.204991v29.204991H87.614973z m29.204991 0h29.204991v29.204991H116.819964z m29.204991 0h29.204992v29.204991H146.024955z m29.204992 0h29.204991v29.204991H175.229947z m29.204991 0h29.204991v29.204991H204.434938z m29.204991 0h29.204991v29.204991H233.639929z m29.204991 0h29.204991v29.204991H262.84492z m29.204991 0h29.204991v29.204991h-29.204991z m29.204991 0h29.204991v29.204991h-29.204991z m29.204991 0h29.204991v29.204991h-29.204991z m29.204991 0h29.204991v29.204991h-29.204991z m29.204991 0h29.204991v29.204991h-29.204991z m29.204991 0h29.204991v29.204991h-29.204991z m29.204991 0h29.204991v29.204991h-29.204991z m29.204991 0h29.204992v29.204991h-29.204992z m29.204992 0h29.204991v29.204991h-29.204991z m29.204991 0h29.204991v29.204991h-29.204991z m29.204991 0h29.204991v29.204991h-29.204991z m29.204991 0h29.204991v29.204991h-29.204991z" fill="#FFE0D6" p-id="2353"></path><path d="M642.509804 175.229947h29.204991v29.204991h-29.204991z m29.204991 0h29.204991v29.204991h-29.204991z m29.204991 0h29.204991v29.204991h-29.204991z m29.204991 0h29.204991v29.204991h-29.204991z m29.204991 0h29.204991v29.204991h-29.204991z m29.204991 0h29.204991v29.204991h-29.204991z m29.204991 0h29.204992v29.204991h-29.204992z m29.204992 0h29.204991v29.204991h-29.204991z" fill="#FF758C" p-id="2354"></path><path d="M876.149733 175.229947h29.204991v29.204991h-29.204991z m29.204991 0h29.204991v29.204991h-29.204991z m29.204991 0h29.204991v29.204991h-29.204991zM29.204991 204.434938h29.204991v29.204991H29.204991z m29.204991 0h29.204991v29.204991H58.409982z m29.204991 0h29.204991v29.204991H87.614973z m29.204991 0h29.204991v29.204991H116.819964z m29.204991 0h29.204992v29.204991H146.024955z m29.204992 0h29.204991v29.204991H175.229947z m29.204991 0h29.204991v29.204991H204.434938z m29.204991 0h29.204991v29.204991H233.639929z m29.204991 0h29.204991v29.204991H262.84492z m29.204991 0h29.204991v29.204991h-29.204991z m29.204991 0h29.204991v29.204991h-29.204991z m29.204991 0h29.204991v29.204991h-29.204991z m29.204991 0h29.204991v29.204991h-29.204991z m29.204991 0h29.204991v29.204991h-29.204991z m29.204991 0h29.204991v29.204991h-29.204991z m29.204991 0h29.204991v29.204991h-29.204991z m29.204991 0h29.204992v29.204991h-29.204992z m29.204992 0h29.204991v29.204991h-29.204991z m29.204991 0h29.204991v29.204991h-29.204991z" fill="#FFE0D6" p-id="2355"></path><path d="M584.099822 204.434938h29.204991v29.204991h-29.204991z" fill="#E0968E" p-id="2356"></path><path d="M613.304813 204.434938h29.204991v29.204991h-29.204991z m29.204991 0h29.204991v29.204991h-29.204991z m29.204991 0h29.204991v29.204991h-29.204991z m29.204991 0h29.204991v29.204991h-29.204991z m29.204991 0h29.204991v29.204991h-29.204991z m29.204991 0h29.204991v29.204991h-29.204991z m29.204991 0h29.204991v29.204991h-29.204991z m29.204991 0h29.204992v29.204991h-29.204992z" fill="#FF758C" p-id="2357"></path><path d="M846.944742 204.434938h29.204991v29.204991h-29.204991z m29.204991 0h29.204991v29.204991h-29.204991z" fill="#DEAEA0" p-id="2358"></path><path d="M905.354724 204.434938h29.204991v29.204991h-29.204991z m29.204991 0h29.204991v29.204991h-29.204991zM29.204991 233.639929h29.204991v29.204991H29.204991z m29.204991 0h29.204991v29.204991H58.409982z m29.204991 0h29.204991v29.204991H87.614973z m29.204991 0h29.204991v29.204991H116.819964z m29.204991 0h29.204992v29.204991H146.024955z m29.204992 0h29.204991v29.204991H175.229947z m29.204991 0h29.204991v29.204991H204.434938z m29.204991 0h29.204991v29.204991H233.639929z m29.204991 0h29.204991v29.204991H262.84492z" fill="#FFE0D6" p-id="2359"></path><path d="M292.049911 233.639929h29.204991v29.204991h-29.204991z" fill="#E0968E" p-id="2360"></path><path d="M321.254902 233.639929h29.204991v29.204991h-29.204991z m29.204991 0h29.204991v29.204991h-29.204991z m29.204991 0h29.204991v29.204991h-29.204991z m29.204991 0h29.204991v29.204991h-29.204991z m29.204991 0h29.204991v29.204991h-29.204991z m29.204991 0h29.204991v29.204991h-29.204991z m29.204991 0h29.204992v29.204991h-29.204992z m29.204992 0h29.204991v29.204991h-29.204991z m29.204991 0h29.204991v29.204991h-29.204991z" fill="#FFE0D6" p-id="2361"></path><path d="M584.099822 233.639929h29.204991v29.204991h-29.204991z" fill="#E0968E" p-id="2362"></path><path d="M613.304813 233.639929h29.204991v29.204991h-29.204991z m29.204991 0h29.204991v29.204991h-29.204991z m29.204991 0h29.204991v29.204991h-29.204991z m29.204991 0h29.204991v29.204991h-29.204991z" fill="#FFE0D6" p-id="2363"></path><path d="M730.124777 233.639929h29.204991v29.204991h-29.204991z m29.204991 0h29.204991v29.204991h-29.204991z m29.204991 0h29.204991v29.204991h-29.204991z m29.204991 0h29.204992v29.204991h-29.204992z" fill="#FF758C" p-id="2364"></path><path d="M846.944742 233.639929h29.204991v29.204991h-29.204991z" fill="#FFE0D6" p-id="2365"></path><path d="M876.149733 233.639929h29.204991v29.204991h-29.204991z m29.204991 0h29.204991v29.204991h-29.204991z" fill="#DEAEA0" p-id="2366"></path><path d="M934.559715 233.639929h29.204991v29.204991h-29.204991zM29.204991 262.84492h29.204991v29.204991H29.204991z m29.204991 0h29.204991v29.204991H58.409982z m29.204991 0h29.204991v29.204991H87.614973z m29.204991 0h29.204991v29.204991H116.819964z m29.204991 0h29.204992v29.204991H146.024955z m29.204992 0h29.204991v29.204991H175.229947z m29.204991 0h29.204991v29.204991H204.434938z m29.204991 0h29.204991v29.204991H233.639929z m29.204991 0h29.204991v29.204991H262.84492z" fill="#FFE0D6" p-id="2367"></path><path d="M292.049911 262.84492h29.204991v29.204991h-29.204991z" fill="#E0968E" p-id="2368"></path><path d="M321.254902 262.84492h29.204991v29.204991h-29.204991z m29.204991 0h29.204991v29.204991h-29.204991z m29.204991 0h29.204991v29.204991h-29.204991z m29.204991 0h29.204991v29.204991h-29.204991z m29.204991 0h29.204991v29.204991h-29.204991z m29.204991 0h29.204991v29.204991h-29.204991z m29.204991 0h29.204992v29.204991h-29.204992z m29.204992 0h29.204991v29.204991h-29.204991z m29.204991 0h29.204991v29.204991h-29.204991z" fill="#FFE0D6" p-id="2369"></path><path d="M584.099822 262.84492h29.204991v29.204991h-29.204991z" fill="#E0968E" p-id="2370"></path><path d="M613.304813 262.84492h29.204991v29.204991h-29.204991z" fill="#A3595B" p-id="2371"></path><path d="M642.509804 262.84492h29.204991v29.204991h-29.204991z m29.204991 0h29.204991v29.204991h-29.204991z m29.204991 0h29.204991v29.204991h-29.204991z" fill="#FFE0D6" p-id="2372"></path><path d="M730.124777 262.84492h29.204991v29.204991h-29.204991z" fill="#E0968E" p-id="2373"></path><path d="M759.329768 262.84492h29.204991v29.204991h-29.204991z m29.204991 0h29.204991v29.204991h-29.204991z m29.204991 0h29.204992v29.204991h-29.204992z" fill="#FF758C" p-id="2374"></path><path d="M846.944742 262.84492h29.204991v29.204991h-29.204991z" fill="#FFE0D6" p-id="2375"></path><path d="M876.149733 262.84492h29.204991v29.204991h-29.204991z m29.204991 0h29.204991v29.204991h-29.204991z m29.204991 0h29.204991v29.204991h-29.204991z" fill="#DEAEA0" p-id="2376"></path><path d="M29.204991 292.049911h29.204991v29.204991H29.204991z m29.204991 0h29.204991v29.204991H58.409982z m29.204991 0h29.204991v29.204991H87.614973z m29.204991 0h29.204991v29.204991H116.819964z m29.204991 0h29.204992v29.204991H146.024955z m29.204992 0h29.204991v29.204991H175.229947z m29.204991 0h29.204991v29.204991H204.434938z m29.204991 0h29.204991v29.204991H233.639929z m29.204991 0h29.204991v29.204991H262.84492z" fill="#FFE0D6" p-id="2377"></path><path d="M292.049911 292.049911h29.204991v29.204991h-29.204991z" fill="#E0968E" p-id="2378"></path><path d="M321.254902 292.049911h29.204991v29.204991h-29.204991z m29.204991 0h29.204991v29.204991h-29.204991z" fill="#FFE0D6" p-id="2379"></path><path d="M379.664884 292.049911h29.204991v29.204991h-29.204991z" fill="#E0968E" p-id="2380"></path><path d="M408.869875 292.049911h29.204991v29.204991h-29.204991z m29.204991 0h29.204991v29.204991h-29.204991z m29.204991 0h29.204991v29.204991h-29.204991z m29.204991 0h29.204992v29.204991h-29.204992z m29.204992 0h29.204991v29.204991h-29.204991z m29.204991 0h29.204991v29.204991h-29.204991z" fill="#FFE0D6" p-id="2381"></path><path d="M584.099822 292.049911h29.204991v29.204991h-29.204991z" fill="#E0968E" p-id="2382"></path><path d="M613.304813 292.049911h29.204991v29.204991h-29.204991z" fill="#A3595B" p-id="2383"></path><path d="M642.509804 292.049911h29.204991v29.204991h-29.204991z m29.204991 0h29.204991v29.204991h-29.204991z m29.204991 0h29.204991v29.204991h-29.204991z" fill="#FFE0D6" p-id="2384"></path><path d="M730.124777 292.049911h29.204991v29.204991h-29.204991z" fill="#E0968E" p-id="2385"></path><path d="M759.329768 292.049911h29.204991v29.204991h-29.204991z" fill="#FFE0D6" p-id="2386"></path><path d="M788.534759 292.049911h29.204991v29.204991h-29.204991z m29.204991 0h29.204992v29.204991h-29.204992z" fill="#FF758C" p-id="2387"></path><path d="M846.944742 292.049911h29.204991v29.204991h-29.204991z" fill="#FFE0D6" p-id="2388"></path><path d="M876.149733 292.049911h29.204991v29.204991h-29.204991z m29.204991 0h29.204991v29.204991h-29.204991z m29.204991 0h29.204991v29.204991h-29.204991z" fill="#DEAEA0" p-id="2389"></path><path d="M29.204991 321.254902h29.204991v29.204991H29.204991z m29.204991 0h29.204991v29.204991H58.409982z m29.204991 0h29.204991v29.204991H87.614973z m29.204991 0h29.204991v29.204991H116.819964z m29.204991 0h29.204992v29.204991H146.024955z m29.204992 0h29.204991v29.204991H175.229947z m29.204991 0h29.204991v29.204991H204.434938z m29.204991 0h29.204991v29.204991H233.639929z m29.204991 0h29.204991v29.204991H262.84492z" fill="#FFE0D6" p-id="2390"></path><path d="M292.049911 321.254902h29.204991v29.204991h-29.204991z" fill="#A3595B" p-id="2391"></path><path d="M321.254902 321.254902h29.204991v29.204991h-29.204991z m29.204991 0h29.204991v29.204991h-29.204991z" fill="#FFE0D6" p-id="2392"></path><path d="M379.664884 321.254902h29.204991v29.204991h-29.204991z" fill="#E0968E" p-id="2393"></path><path d="M408.869875 321.254902h29.204991v29.204991h-29.204991z m29.204991 0h29.204991v29.204991h-29.204991z m29.204991 0h29.204991v29.204991h-29.204991z m29.204991 0h29.204992v29.204991h-29.204992z m29.204992 0h29.204991v29.204991h-29.204991z m29.204991 0h29.204991v29.204991h-29.204991z" fill="#FFE0D6" p-id="2394"></path><path d="M584.099822 321.254902h29.204991v29.204991h-29.204991z" fill="#A3595B" p-id="2395"></path><path d="M613.304813 321.254902h29.204991v29.204991h-29.204991z" fill="#EB9898" p-id="2396"></path><path d="M642.509804 321.254902h29.204991v29.204991h-29.204991z" fill="#A3595B" p-id="2397"></path><path d="M671.714795 321.254902h29.204991v29.204991h-29.204991z m29.204991 0h29.204991v29.204991h-29.204991z" fill="#FFE0D6" p-id="2398"></path><path d="M730.124777 321.254902h29.204991v29.204991h-29.204991z m29.204991 0h29.204991v29.204991h-29.204991z" fill="#E0968E" p-id="2399"></path><path d="M788.534759 321.254902h29.204991v29.204991h-29.204991z" fill="#FFE0D6" p-id="2400"></path><path d="M817.73975 321.254902h29.204992v29.204991h-29.204992z" fill="#FF758C" p-id="2401"></path><path d="M846.944742 321.254902h29.204991v29.204991h-29.204991z" fill="#FFE0D6" p-id="2402"></path><path d="M876.149733 321.254902h29.204991v29.204991h-29.204991z m29.204991 0h29.204991v29.204991h-29.204991z m29.204991 0h29.204991v29.204991h-29.204991z" fill="#DEAEA0" p-id="2403"></path><path d="M29.204991 350.459893h29.204991v29.204991H29.204991z m29.204991 0h29.204991v29.204991H58.409982z m29.204991 0h29.204991v29.204991H87.614973z m29.204991 0h29.204991v29.204991H116.819964z m29.204991 0h29.204992v29.204991H146.024955z m29.204992 0h29.204991v29.204991H175.229947z m29.204991 0h29.204991v29.204991H204.434938z m29.204991 0h29.204991v29.204991H233.639929z" fill="#FFE0D6" p-id="2404"></path><path d="M262.84492 350.459893h29.204991v29.204991H262.84492z" fill="#A3595B" p-id="2405"></path><path d="M292.049911 350.459893h29.204991v29.204991h-29.204991z" fill="#FFF5F5" p-id="2406"></path><path d="M321.254902 350.459893h29.204991v29.204991h-29.204991z" fill="#A3595B" p-id="2407"></path><path d="M350.459893 350.459893h29.204991v29.204991h-29.204991z" fill="#FFE0D6" p-id="2408"></path><path d="M379.664884 350.459893h29.204991v29.204991h-29.204991z" fill="#A3595B" p-id="2409"></path><path d="M408.869875 350.459893h29.204991v29.204991h-29.204991z m29.204991 0h29.204991v29.204991h-29.204991z m29.204991 0h29.204991v29.204991h-29.204991z m29.204991 0h29.204992v29.204991h-29.204992z m29.204992 0h29.204991v29.204991h-29.204991z m29.204991 0h29.204991v29.204991h-29.204991z" fill="#FFE0D6" p-id="2410"></path><path d="M584.099822 350.459893h29.204991v29.204991h-29.204991z" fill="#A3595B" p-id="2411"></path><path d="M613.304813 350.459893h29.204991v29.204991h-29.204991z" fill="#EB9898" p-id="2412"></path><path d="M642.509804 350.459893h29.204991v29.204991h-29.204991z" fill="#A3595B" p-id="2413"></path><path d="M671.714795 350.459893h29.204991v29.204991h-29.204991z" fill="#FFE0D6" p-id="2414"></path><path d="M700.919786 350.459893h29.204991v29.204991h-29.204991z m29.204991 0h29.204991v29.204991h-29.204991z" fill="#9C3D40" p-id="2415"></path><path d="M759.329768 350.459893h29.204991v29.204991h-29.204991z" fill="#E0968E" p-id="2416"></path><path d="M788.534759 350.459893h29.204991v29.204991h-29.204991z m29.204991 0h29.204992v29.204991h-29.204992z m29.204992 0h29.204991v29.204991h-29.204991z m29.204991 0h29.204991v29.204991h-29.204991z" fill="#FFE0D6" p-id="2417"></path><path d="M905.354724 350.459893h29.204991v29.204991h-29.204991z m29.204991 0h29.204991v29.204991h-29.204991z" fill="#DEAEA0" p-id="2418"></path><path d="M29.204991 379.664884h29.204991v29.204991H29.204991z m29.204991 0h29.204991v29.204991H58.409982z m29.204991 0h29.204991v29.204991H87.614973z m29.204991 0h29.204991v29.204991H116.819964z m29.204991 0h29.204992v29.204991H146.024955z" fill="#FFE0D6" p-id="2419"></path><path d="M175.229947 379.664884h29.204991v29.204991H175.229947z" fill="#E0968E" p-id="2420"></path><path d="M204.434938 379.664884h29.204991v29.204991H204.434938z m29.204991 0h29.204991v29.204991H233.639929z" fill="#FFE0D6" p-id="2421"></path><path d="M262.84492 379.664884h29.204991v29.204991H262.84492z" fill="#A3595B" p-id="2422"></path><path d="M292.049911 379.664884h29.204991v29.204991h-29.204991z" fill="#FFF5F5" p-id="2423"></path><path d="M321.254902 379.664884h29.204991v29.204991h-29.204991z" fill="#A3595B" p-id="2424"></path><path d="M350.459893 379.664884h29.204991v29.204991h-29.204991z" fill="#FFE0D6" p-id="2425"></path><path d="M379.664884 379.664884h29.204991v29.204991h-29.204991z m29.204991 0h29.204991v29.204991h-29.204991z" fill="#A3595B" p-id="2426"></path><path d="M438.074866 379.664884h29.204991v29.204991h-29.204991z m29.204991 0h29.204991v29.204991h-29.204991z m29.204991 0h29.204992v29.204991h-29.204992z m29.204992 0h29.204991v29.204991h-29.204991z m29.204991 0h29.204991v29.204991h-29.204991z" fill="#FFE0D6" p-id="2427"></path><path d="M584.099822 379.664884h29.204991v29.204991h-29.204991z" fill="#A3595B" p-id="2428"></path><path d="M613.304813 379.664884h29.204991v29.204991h-29.204991z m29.204991 0h29.204991v29.204991h-29.204991z" fill="#FFF5F5" p-id="2429"></path><path d="M671.714795 379.664884h29.204991v29.204991h-29.204991z" fill="#9C3D40" p-id="2430"></path><path d="M700.919786 379.664884h29.204991v29.204991h-29.204991z m29.204991 0h29.204991v29.204991h-29.204991z" fill="#FFF5F5" p-id="2431"></path><path d="M759.329768 379.664884h29.204991v29.204991h-29.204991z m29.204991 0h29.204991v29.204991h-29.204991z m29.204991 0h29.204992v29.204991h-29.204992z m29.204992 0h29.204991v29.204991h-29.204991z m29.204991 0h29.204991v29.204991h-29.204991z m29.204991 0h29.204991v29.204991h-29.204991z m29.204991 0h29.204991v29.204991h-29.204991z" fill="#9C3D40" p-id="2432"></path><path d="M29.204991 408.869875h29.204991v29.204991H29.204991z m29.204991 0h29.204991v29.204991H58.409982z m29.204991 0h29.204991v29.204991H87.614973z m29.204991 0h29.204991v29.204991H116.819964z m29.204991 0h29.204992v29.204991H146.024955z" fill="#FFE0D6" p-id="2433"></path><path d="M175.229947 408.869875h29.204991v29.204991H175.229947z" fill="#E0968E" p-id="2434"></path><path d="M204.434938 408.869875h29.204991v29.204991H204.434938z" fill="#FFE0D6" p-id="2435"></path><path d="M233.639929 408.869875h29.204991v29.204991H233.639929z" fill="#A3595B" p-id="2436"></path><path d="M262.84492 408.869875h29.204991v29.204991H262.84492z" fill="#FFF5F5" p-id="2437"></path><path d="M292.049911 408.869875h29.204991v29.204991h-29.204991z" p-id="2438"></path><path d="M321.254902 408.869875h29.204991v29.204991h-29.204991z" fill="#FFF5F5" p-id="2439"></path><path d="M350.459893 408.869875h29.204991v29.204991h-29.204991z m29.204991 0h29.204991v29.204991h-29.204991z" fill="#A3595B" p-id="2440"></path><path d="M408.869875 408.869875h29.204991v29.204991h-29.204991z" fill="#FFF5F5" p-id="2441"></path><path d="M438.074866 408.869875h29.204991v29.204991h-29.204991z" fill="#A3595B" p-id="2442"></path><path d="M467.279857 408.869875h29.204991v29.204991h-29.204991z m29.204991 0h29.204992v29.204991h-29.204992z" fill="#FFE0D6" p-id="2443"></path><path d="M525.68984 408.869875h29.204991v29.204991h-29.204991z" fill="#E0968E" p-id="2444"></path><path d="M554.894831 408.869875h29.204991v29.204991h-29.204991z" fill="#FFE0D6" p-id="2445"></path><path d="M584.099822 408.869875h29.204991v29.204991h-29.204991z" fill="#A3595B" p-id="2446"></path><path d="M613.304813 408.869875h29.204991v29.204991h-29.204991z m29.204991 0h29.204991v29.204991h-29.204991z" fill="#FFF5F5" p-id="2447"></path><path d="M671.714795 408.869875h29.204991v29.204991h-29.204991z" fill="#9C3D40" p-id="2448"></path><path d="M700.919786 408.869875h29.204991v29.204991h-29.204991z m29.204991 0h29.204991v29.204991h-29.204991z m29.204991 0h29.204991v29.204991h-29.204991z m29.204991 0h29.204991v29.204991h-29.204991z" fill="#FFF5F5" p-id="2449"></path><path d="M817.73975 408.869875h29.204992v29.204991h-29.204992z" fill="#FFA8A8" p-id="2450"></path><path d="M846.944742 408.869875h29.204991v29.204991h-29.204991z m29.204991 0h29.204991v29.204991h-29.204991z m29.204991 0h29.204991v29.204991h-29.204991z m29.204991 0h29.204991v29.204991h-29.204991z" fill="#FFF5F5" p-id="2451"></path><path d="M29.204991 438.074866h29.204991v29.204991H29.204991z m29.204991 0h29.204991v29.204991H58.409982z m29.204991 0h29.204991v29.204991H87.614973z m29.204991 0h29.204991v29.204991H116.819964z m29.204991 0h29.204992v29.204991H146.024955z" fill="#FFE0D6" p-id="2452"></path><path d="M175.229947 438.074866h29.204991v29.204991H175.229947z" fill="#E0968E" p-id="2453"></path><path d="M204.434938 438.074866h29.204991v29.204991H204.434938z" fill="#A3595B" p-id="2454"></path><path d="M233.639929 438.074866h29.204991v29.204991H233.639929z" fill="#FFF5F5" p-id="2455"></path><path d="M262.84492 438.074866h29.204991v29.204991H262.84492z m29.204991 0h29.204991v29.204991h-29.204991z m29.204991 0h29.204991v29.204991h-29.204991z m29.204991 0h29.204991v29.204991h-29.204991z" p-id="2456"></path><path d="M379.664884 438.074866h29.204991v29.204991h-29.204991z m29.204991 0h29.204991v29.204991h-29.204991z m29.204991 0h29.204991v29.204991h-29.204991z" fill="#FFF5F5" p-id="2457"></path><path d="M467.279857 438.074866h29.204991v29.204991h-29.204991z m29.204991 0h29.204992v29.204991h-29.204992z m29.204992 0h29.204991v29.204991h-29.204991z m29.204991 0h29.204991v29.204991h-29.204991z m29.204991 0h29.204991v29.204991h-29.204991z" fill="#A3595B" p-id="2458"></path><path d="M613.304813 438.074866h29.204991v29.204991h-29.204991z" fill="#FFF5F5" p-id="2459"></path><path d="M642.509804 438.074866h29.204991v29.204991h-29.204991z" fill="#B16668" p-id="2460"></path><path d="M671.714795 438.074866h29.204991v29.204991h-29.204991z" p-id="2461"></path><path d="M700.919786 438.074866h29.204991v29.204991h-29.204991z" fill="#9C3D40" p-id="2462"></path><path d="M730.124777 438.074866h29.204991v29.204991h-29.204991z m29.204991 0h29.204991v29.204991h-29.204991z m29.204991 0h29.204991v29.204991h-29.204991z" fill="#FFF5F5" p-id="2463"></path><path d="M817.73975 438.074866h29.204992v29.204991h-29.204992z" fill="#FFA8A8" p-id="2464"></path><path d="M846.944742 438.074866h29.204991v29.204991h-29.204991z m29.204991 0h29.204991v29.204991h-29.204991z m29.204991 0h29.204991v29.204991h-29.204991z m29.204991 0h29.204991v29.204991h-29.204991z" fill="#FFF5F5" p-id="2465"></path><path d="M29.204991 467.279857h29.204991v29.204991H29.204991z m29.204991 0h29.204991v29.204991H58.409982z m29.204991 0h29.204991v29.204991H87.614973z m29.204991 0h29.204991v29.204991H116.819964z m29.204991 0h29.204992v29.204991H146.024955z" fill="#FFE0D6" p-id="2466"></path><path d="M175.229947 467.279857h29.204991v29.204991H175.229947z" fill="#A3595B" p-id="2467"></path><path d="M204.434938 467.279857h29.204991v29.204991H204.434938z" fill="#FFF5F5" p-id="2468"></path><path d="M233.639929 467.279857h29.204991v29.204991H233.639929z m29.204991 0h29.204991v29.204991H262.84492z" p-id="2469"></path><path d="M292.049911 467.279857h29.204991v29.204991h-29.204991z m29.204991 0h29.204991v29.204991h-29.204991z m29.204991 0h29.204991v29.204991h-29.204991z" fill="#579BDD" p-id="2470"></path><path d="M379.664884 467.279857h29.204991v29.204991h-29.204991z" p-id="2471"></path><path d="M408.869875 467.279857h29.204991v29.204991h-29.204991z m29.204991 0h29.204991v29.204991h-29.204991z m29.204991 0h29.204991v29.204991h-29.204991z m29.204991 0h29.204992v29.204991h-29.204992z m29.204992 0h29.204991v29.204991h-29.204991z m29.204991 0h29.204991v29.204991h-29.204991z" fill="#FFF5F5" p-id="2472"></path><path d="M584.099822 467.279857h29.204991v29.204991h-29.204991z" fill="#B16668" p-id="2473"></path><path d="M613.304813 467.279857h29.204991v29.204991h-29.204991z m29.204991 0h29.204991v29.204991h-29.204991z m29.204991 0h29.204991v29.204991h-29.204991z m29.204991 0h29.204991v29.204991h-29.204991z" p-id="2474"></path><path d="M730.124777 467.279857h29.204991v29.204991h-29.204991z" fill="#9C3D40" p-id="2475"></path><path d="M759.329768 467.279857h29.204991v29.204991h-29.204991z m29.204991 0h29.204991v29.204991h-29.204991z" fill="#FFA8A8" p-id="2476"></path><path d="M817.73975 467.279857h29.204992v29.204991h-29.204992z m29.204992 0h29.204991v29.204991h-29.204991z m29.204991 0h29.204991v29.204991h-29.204991z" fill="#FFF5F5" p-id="2477"></path><path d="M905.354724 467.279857h29.204991v29.204991h-29.204991z" fill="#FFA8A8" p-id="2478"></path><path d="M934.559715 467.279857h29.204991v29.204991h-29.204991z" fill="#FFF5F5" p-id="2479"></path><path d="M29.204991 496.484848h29.204991v29.204992H29.204991z m29.204991 0h29.204991v29.204992H58.409982z m29.204991 0h29.204991v29.204992H87.614973z m29.204991 0h29.204991v29.204992H116.819964z m29.204991 0h29.204992v29.204992H146.024955z" fill="#FFE0D6" p-id="2480"></path><path d="M175.229947 496.484848h29.204991v29.204992H175.229947z" fill="#A3595B" p-id="2481"></path><path d="M204.434938 496.484848h29.204991v29.204992H204.434938z m29.204991 0h29.204991v29.204992H233.639929z" p-id="2482"></path><path d="M262.84492 496.484848h29.204991v29.204992H262.84492z" fill="#FFBBC6" p-id="2483"></path><path d="M292.049911 496.484848h29.204991v29.204992h-29.204991z m29.204991 0h29.204991v29.204992h-29.204991z" fill="#579BDD" p-id="2484"></path><path d="M350.459893 496.484848h29.204991v29.204992h-29.204991z" fill="#FFFFFF" p-id="2485"></path><path d="M379.664884 496.484848h29.204991v29.204992h-29.204991z" fill="#579BDD" p-id="2486"></path><path d="M408.869875 496.484848h29.204991v29.204992h-29.204991z m29.204991 0h29.204991v29.204992h-29.204991z m29.204991 0h29.204991v29.204992h-29.204991z m29.204991 0h29.204992v29.204992h-29.204992z m29.204992 0h29.204991v29.204992h-29.204991z m29.204991 0h29.204991v29.204992h-29.204991z" fill="#FFF5F5" p-id="2487"></path><path d="M584.099822 496.484848h29.204991v29.204992h-29.204991z" p-id="2488"></path><path d="M613.304813 496.484848h29.204991v29.204992h-29.204991z" fill="#B16668" p-id="2489"></path><path d="M642.509804 496.484848h29.204991v29.204992h-29.204991z" fill="#FFF5F5" p-id="2490"></path><path d="M671.714795 496.484848h29.204991v29.204992h-29.204991z" fill="#FFA8A8" p-id="2491"></path><path d="M700.919786 496.484848h29.204991v29.204992h-29.204991z" fill="#FFF5F5" p-id="2492"></path><path d="M730.124777 496.484848h29.204991v29.204992h-29.204991z" fill="#FFA8A8" p-id="2493"></path><path d="M759.329768 496.484848h29.204991v29.204992h-29.204991z" fill="#9C3D40" p-id="2494"></path><path d="M788.534759 496.484848h29.204991v29.204992h-29.204991z" fill="#FFA8A8" p-id="2495"></path><path d="M817.73975 496.484848h29.204992v29.204992h-29.204992z m29.204992 0h29.204991v29.204992h-29.204991z" fill="#FFF5F5" p-id="2496"></path><path d="M876.149733 496.484848h29.204991v29.204992h-29.204991z" fill="#FFA8A8" p-id="2497"></path><path d="M905.354724 496.484848h29.204991v29.204992h-29.204991z m29.204991 0h29.204991v29.204992h-29.204991z" fill="#FFF5F5" p-id="2498"></path><path d="M29.204991 525.68984h29.204991v29.204991H29.204991z m29.204991 0h29.204991v29.204991H58.409982z m29.204991 0h29.204991v29.204991H87.614973z m29.204991 0h29.204991v29.204991H116.819964z m29.204991 0h29.204992v29.204991H146.024955z" fill="#FFE0D6" p-id="2499"></path><path d="M175.229947 525.68984h29.204991v29.204991H175.229947z" fill="#A3595B" p-id="2500"></path><path d="M204.434938 525.68984h29.204991v29.204991H204.434938z" fill="#FFF5F5" p-id="2501"></path><path d="M233.639929 525.68984h29.204991v29.204991H233.639929z" p-id="2502"></path><path d="M262.84492 525.68984h29.204991v29.204991H262.84492z" fill="#FFFFFF" p-id="2503"></path><path d="M292.049911 525.68984h29.204991v29.204991h-29.204991z m29.204991 0h29.204991v29.204991h-29.204991z m29.204991 0h29.204991v29.204991h-29.204991z m29.204991 0h29.204991v29.204991h-29.204991z" fill="#579BDD" p-id="2504"></path><path d="M408.869875 525.68984h29.204991v29.204991h-29.204991z m29.204991 0h29.204991v29.204991h-29.204991z m29.204991 0h29.204991v29.204991h-29.204991z m29.204991 0h29.204992v29.204991h-29.204992z m29.204992 0h29.204991v29.204991h-29.204991z m29.204991 0h29.204991v29.204991h-29.204991z m29.204991 0h29.204991v29.204991h-29.204991z m29.204991 0h29.204991v29.204991h-29.204991z m29.204991 0h29.204991v29.204991h-29.204991z m29.204991 0h29.204991v29.204991h-29.204991z m29.204991 0h29.204991v29.204991h-29.204991z" fill="#FFF5F5" p-id="2505"></path><path d="M730.124777 525.68984h29.204991v29.204991h-29.204991z" fill="#9C3D40" p-id="2506"></path><path d="M759.329768 525.68984h29.204991v29.204991h-29.204991z m29.204991 0h29.204991v29.204991h-29.204991z" fill="#FFF5F5" p-id="2507"></path><path d="M817.73975 525.68984h29.204992v29.204991h-29.204992z" fill="#FFA8A8" p-id="2508"></path><path d="M846.944742 525.68984h29.204991v29.204991h-29.204991z" fill="#FFF5F5" p-id="2509"></path><path d="M876.149733 525.68984h29.204991v29.204991h-29.204991z" fill="#FFA8A8" p-id="2510"></path><path d="M905.354724 525.68984h29.204991v29.204991h-29.204991z" fill="#FFF5F5" p-id="2511"></path><path d="M934.559715 525.68984h29.204991v29.204991h-29.204991z" fill="#FFA8A8" p-id="2512"></path><path d="M29.204991 554.894831h29.204991v29.204991H29.204991z m29.204991 0h29.204991v29.204991H58.409982z m29.204991 0h29.204991v29.204991H87.614973z m29.204991 0h29.204991v29.204991H116.819964z m29.204991 0h29.204992v29.204991H146.024955z" fill="#FFE0D6" p-id="2513"></path><path d="M175.229947 554.894831h29.204991v29.204991H175.229947z" fill="#A3595B" p-id="2514"></path><path d="M204.434938 554.894831h29.204991v29.204991H204.434938z" fill="#9C3D40" p-id="2515"></path><path d="M233.639929 554.894831h29.204991v29.204991H233.639929z" fill="#FFF5F5" p-id="2516"></path><path d="M262.84492 554.894831h29.204991v29.204991H262.84492z" fill="#FFFFFF" p-id="2517"></path><path d="M292.049911 554.894831h29.204991v29.204991h-29.204991z" fill="#579BDD" p-id="2518"></path><path d="M321.254902 554.894831h29.204991v29.204991h-29.204991z m29.204991 0h29.204991v29.204991h-29.204991z" fill="#B2DAFF" p-id="2519"></path><path d="M379.664884 554.894831h29.204991v29.204991h-29.204991z" fill="#579BDD" p-id="2520"></path><path d="M408.869875 554.894831h29.204991v29.204991h-29.204991z m29.204991 0h29.204991v29.204991h-29.204991z m29.204991 0h29.204991v29.204991h-29.204991z m29.204991 0h29.204992v29.204991h-29.204992z m29.204992 0h29.204991v29.204991h-29.204991z m29.204991 0h29.204991v29.204991h-29.204991z m29.204991 0h29.204991v29.204991h-29.204991z m29.204991 0h29.204991v29.204991h-29.204991z m29.204991 0h29.204991v29.204991h-29.204991z m29.204991 0h29.204991v29.204991h-29.204991z m29.204991 0h29.204991v29.204991h-29.204991z" fill="#FFF5F5" p-id="2521"></path><path d="M730.124777 554.894831h29.204991v29.204991h-29.204991z" fill="#9C3D40" p-id="2522"></path><path d="M759.329768 554.894831h29.204991v29.204991h-29.204991z m29.204991 0h29.204991v29.204991h-29.204991z m29.204991 0h29.204992v29.204991h-29.204992z" fill="#FFF5F5" p-id="2523"></path><path d="M846.944742 554.894831h29.204991v29.204991h-29.204991z m29.204991 0h29.204991v29.204991h-29.204991z" fill="#FFA8A8" p-id="2524"></path><path d="M905.354724 554.894831h29.204991v29.204991h-29.204991z" fill="#FFF5F5" p-id="2525"></path><path d="M934.559715 554.894831h29.204991v29.204991h-29.204991z" fill="#FFA8A8" p-id="2526"></path><path d="M29.204991 584.099822h29.204991v29.204991H29.204991z m29.204991 0h29.204991v29.204991H58.409982z m29.204991 0h29.204991v29.204991H87.614973z m29.204991 0h29.204991v29.204991H116.819964z m29.204991 0h29.204992v29.204991H146.024955z" fill="#FFE0D6" p-id="2527"></path><path d="M175.229947 584.099822h29.204991v29.204991H175.229947z" fill="#A3595B" p-id="2528"></path><path d="M204.434938 584.099822h29.204991v29.204991H204.434938z" fill="#9C3D40" p-id="2529"></path><path d="M233.639929 584.099822h29.204991v29.204991H233.639929z m29.204991 0h29.204991v29.204991H262.84492z" fill="#FFF5F5" p-id="2530"></path><path d="M292.049911 584.099822h29.204991v29.204991h-29.204991z" fill="#FFFFFF" p-id="2531"></path><path d="M321.254902 584.099822h29.204991v29.204991h-29.204991z m29.204991 0h29.204991v29.204991h-29.204991z" fill="#B2DAFF" p-id="2532"></path><path d="M379.664884 584.099822h29.204991v29.204991h-29.204991z m29.204991 0h29.204991v29.204991h-29.204991z m29.204991 0h29.204991v29.204991h-29.204991z m29.204991 0h29.204991v29.204991h-29.204991z m29.204991 0h29.204992v29.204991h-29.204992z m29.204992 0h29.204991v29.204991h-29.204991z m29.204991 0h29.204991v29.204991h-29.204991z m29.204991 0h29.204991v29.204991h-29.204991z m29.204991 0h29.204991v29.204991h-29.204991z m29.204991 0h29.204991v29.204991h-29.204991z m29.204991 0h29.204991v29.204991h-29.204991z m29.204991 0h29.204991v29.204991h-29.204991z" fill="#FFF5F5" p-id="2533"></path><path d="M730.124777 584.099822h29.204991v29.204991h-29.204991z" fill="#A3595B" p-id="2534"></path><path d="M759.329768 584.099822h29.204991v29.204991h-29.204991z m29.204991 0h29.204991v29.204991h-29.204991z m29.204991 0h29.204992v29.204991h-29.204992z m29.204992 0h29.204991v29.204991h-29.204991z m29.204991 0h29.204991v29.204991h-29.204991z m29.204991 0h29.204991v29.204991h-29.204991z m29.204991 0h29.204991v29.204991h-29.204991z" fill="#9C3D40" p-id="2535"></path><path d="M29.204991 613.304813h29.204991v29.204991H29.204991z m29.204991 0h29.204991v29.204991H58.409982z m29.204991 0h29.204991v29.204991H87.614973z m29.204991 0h29.204991v29.204991H116.819964z m29.204991 0h29.204992v29.204991H146.024955z" fill="#FFE0D6" p-id="2536"></path><path d="M175.229947 613.304813h29.204991v29.204991H175.229947z" fill="#A3595B" p-id="2537"></path><path d="M204.434938 613.304813h29.204991v29.204991H204.434938z" fill="#FFECCB" p-id="2538"></path><path d="M233.639929 613.304813h29.204991v29.204991H233.639929z" fill="#9C3D40" p-id="2539"></path><path d="M262.84492 613.304813h29.204991v29.204991H262.84492z" fill="#FFA8A8" p-id="2540"></path><path d="M292.049911 613.304813h29.204991v29.204991h-29.204991z" fill="#FFF5F5" p-id="2541"></path><path d="M321.254902 613.304813h29.204991v29.204991h-29.204991z" fill="#FFA8A8" p-id="2542"></path><path d="M350.459893 613.304813h29.204991v29.204991h-29.204991z m29.204991 0h29.204991v29.204991h-29.204991z m29.204991 0h29.204991v29.204991h-29.204991z m29.204991 0h29.204991v29.204991h-29.204991z m29.204991 0h29.204991v29.204991h-29.204991z m29.204991 0h29.204992v29.204991h-29.204992z m29.204992 0h29.204991v29.204991h-29.204991z" fill="#FFF5F5" p-id="2543"></path><path d="M554.894831 613.304813h29.204991v29.204991h-29.204991z" fill="#FFA8A8" p-id="2544"></path><path d="M584.099822 613.304813h29.204991v29.204991h-29.204991z m29.204991 0h29.204991v29.204991h-29.204991z m29.204991 0h29.204991v29.204991h-29.204991z m29.204991 0h29.204991v29.204991h-29.204991z m29.204991 0h29.204991v29.204991h-29.204991z" fill="#FFF5F5" p-id="2545"></path><path d="M730.124777 613.304813h29.204991v29.204991h-29.204991z" fill="#A3595B" p-id="2546"></path><path d="M759.329768 613.304813h29.204991v29.204991h-29.204991z m29.204991 0h29.204991v29.204991h-29.204991z m29.204991 0h29.204992v29.204991h-29.204992z m29.204992 0h29.204991v29.204991h-29.204991z m29.204991 0h29.204991v29.204991h-29.204991z" fill="#FFE0D6" p-id="2547"></path><path d="M905.354724 613.304813h29.204991v29.204991h-29.204991z m29.204991 0h29.204991v29.204991h-29.204991z" fill="#DEAEA0" p-id="2548"></path><path d="M29.204991 642.509804h29.204991v29.204991H29.204991z m29.204991 0h29.204991v29.204991H58.409982z m29.204991 0h29.204991v29.204991H87.614973z m29.204991 0h29.204991v29.204991H116.819964z m29.204991 0h29.204992v29.204991H146.024955z m29.204992 0h29.204991v29.204991H175.229947z" fill="#FFE0D6" p-id="2549"></path><path d="M204.434938 642.509804h29.204991v29.204991H204.434938z" fill="#A3595B" p-id="2550"></path><path d="M233.639929 642.509804h29.204991v29.204991H233.639929z" fill="#9C3D40" p-id="2551"></path><path d="M262.84492 642.509804h29.204991v29.204991H262.84492z m29.204991 0h29.204991v29.204991h-29.204991z m29.204991 0h29.204991v29.204991h-29.204991z m29.204991 0h29.204991v29.204991h-29.204991z m29.204991 0h29.204991v29.204991h-29.204991z m29.204991 0h29.204991v29.204991h-29.204991z" fill="#FFF5F5" p-id="2552"></path><path d="M438.074866 642.509804h29.204991v29.204991h-29.204991z m29.204991 0h29.204991v29.204991h-29.204991z m29.204991 0h29.204992v29.204991h-29.204992z m29.204992 0h29.204991v29.204991h-29.204991z" fill="#FFA8A8" p-id="2553"></path><path d="M554.894831 642.509804h29.204991v29.204991h-29.204991z m29.204991 0h29.204991v29.204991h-29.204991z m29.204991 0h29.204991v29.204991h-29.204991z m29.204991 0h29.204991v29.204991h-29.204991z m29.204991 0h29.204991v29.204991h-29.204991z" fill="#FFF5F5" p-id="2554"></path><path d="M700.919786 642.509804h29.204991v29.204991h-29.204991z" fill="#A3595B" p-id="2555"></path><path d="M730.124777 642.509804h29.204991v29.204991h-29.204991z m29.204991 0h29.204991v29.204991h-29.204991z m29.204991 0h29.204991v29.204991h-29.204991z m29.204991 0h29.204992v29.204991h-29.204992z m29.204992 0h29.204991v29.204991h-29.204991z" fill="#FFE0D6" p-id="2556"></path><path d="M876.149733 642.509804h29.204991v29.204991h-29.204991z m29.204991 0h29.204991v29.204991h-29.204991z" fill="#DEAEA0" p-id="2557"></path><path d="M934.559715 642.509804h29.204991v29.204991h-29.204991z" fill="#A3595B" p-id="2558"></path><path d="M29.204991 671.714795h29.204991v29.204991H29.204991z m29.204991 0h29.204991v29.204991H58.409982z m29.204991 0h29.204991v29.204991H87.614973z" fill="#FFE0D6" p-id="2559"></path><path d="M116.819964 671.714795h29.204991v29.204991H116.819964z" fill="#E0968E" p-id="2560"></path><path d="M146.024955 671.714795h29.204992v29.204991H146.024955z m29.204992 0h29.204991v29.204991H175.229947z" fill="#FFE0D6" p-id="2561"></path><path d="M204.434938 671.714795h29.204991v29.204991H204.434938z" fill="#A3595B" p-id="2562"></path><path d="M233.639929 671.714795h29.204991v29.204991H233.639929z" fill="#FFECCB" p-id="2563"></path><path d="M262.84492 671.714795h29.204991v29.204991H262.84492z" fill="#9C3D40" p-id="2564"></path><path d="M292.049911 671.714795h29.204991v29.204991h-29.204991z m29.204991 0h29.204991v29.204991h-29.204991z m29.204991 0h29.204991v29.204991h-29.204991z m29.204991 0h29.204991v29.204991h-29.204991z m29.204991 0h29.204991v29.204991h-29.204991z m29.204991 0h29.204991v29.204991h-29.204991z m29.204991 0h29.204991v29.204991h-29.204991z m29.204991 0h29.204992v29.204991h-29.204992z m29.204992 0h29.204991v29.204991h-29.204991z m29.204991 0h29.204991v29.204991h-29.204991z m29.204991 0h29.204991v29.204991h-29.204991z m29.204991 0h29.204991v29.204991h-29.204991z m29.204991 0h29.204991v29.204991h-29.204991z m29.204991 0h29.204991v29.204991h-29.204991z" fill="#FFF5F5" p-id="2565"></path><path d="M700.919786 671.714795h29.204991v29.204991h-29.204991z" fill="#A3595B" p-id="2566"></path><path d="M730.124777 671.714795h29.204991v29.204991h-29.204991z m29.204991 0h29.204991v29.204991h-29.204991z m29.204991 0h29.204991v29.204991h-29.204991z m29.204991 0h29.204992v29.204991h-29.204992z" fill="#FFE0D6" p-id="2567"></path><path d="M846.944742 671.714795h29.204991v29.204991h-29.204991z" fill="#A3595B" p-id="2568"></path><path d="M876.149733 671.714795h29.204991v29.204991h-29.204991z m29.204991 0h29.204991v29.204991h-29.204991z" fill="#DEAEA0" p-id="2569"></path><path d="M934.559715 671.714795h29.204991v29.204991h-29.204991zM29.204991 700.919786h29.204991v29.204991H29.204991z" fill="#A3595B" p-id="2570"></path><path d="M58.409982 700.919786h29.204991v29.204991H58.409982z m29.204991 0h29.204991v29.204991H87.614973z" fill="#FFE0D6" p-id="2571"></path><path d="M116.819964 700.919786h29.204991v29.204991H116.819964z" fill="#E0968E" p-id="2572"></path><path d="M146.024955 700.919786h29.204992v29.204991H146.024955z m29.204992 0h29.204991v29.204991H175.229947z m29.204991 0h29.204991v29.204991H204.434938z" fill="#FFE0D6" p-id="2573"></path><path d="M233.639929 700.919786h29.204991v29.204991H233.639929z" fill="#A3595B" p-id="2574"></path><path d="M262.84492 700.919786h29.204991v29.204991H262.84492z" fill="#FFECCB" p-id="2575"></path><path d="M292.049911 700.919786h29.204991v29.204991h-29.204991z" fill="#9C3D40" p-id="2576"></path><path d="M321.254902 700.919786h29.204991v29.204991h-29.204991z m29.204991 0h29.204991v29.204991h-29.204991z m29.204991 0h29.204991v29.204991h-29.204991z m29.204991 0h29.204991v29.204991h-29.204991z m29.204991 0h29.204991v29.204991h-29.204991z m29.204991 0h29.204991v29.204991h-29.204991z" fill="#FFF5F5" p-id="2577"></path><path d="M496.484848 700.919786h29.204992v29.204991h-29.204992z m29.204992 0h29.204991v29.204991h-29.204991z m29.204991 0h29.204991v29.204991h-29.204991z m29.204991 0h29.204991v29.204991h-29.204991z m29.204991 0h29.204991v29.204991h-29.204991z m29.204991 0h29.204991v29.204991h-29.204991z" fill="#9C3D40" p-id="2578"></path><path d="M671.714795 700.919786h29.204991v29.204991h-29.204991z" fill="#A3595B" p-id="2579"></path><path d="M700.919786 700.919786h29.204991v29.204991h-29.204991z m29.204991 0h29.204991v29.204991h-29.204991z m29.204991 0h29.204991v29.204991h-29.204991z m29.204991 0h29.204991v29.204991h-29.204991z" fill="#FFE0D6" p-id="2580"></path><path d="M817.73975 700.919786h29.204992v29.204991h-29.204992z m29.204992 0h29.204991v29.204991h-29.204991z" fill="#A3595B" p-id="2581"></path><path d="M876.149733 700.919786h29.204991v29.204991h-29.204991z" fill="#DEAEA0" p-id="2582"></path><path d="M905.354724 700.919786h29.204991v29.204991h-29.204991z" fill="#A3595B" p-id="2583"></path><path d="M934.559715 700.919786h29.204991v29.204991h-29.204991z" fill="#FFE0D6" p-id="2584"></path><path d="M29.204991 730.124777h29.204991v29.204991H29.204991z" fill="#A3595B" p-id="2585"></path><path d="M58.409982 730.124777h29.204991v29.204991H58.409982z m29.204991 0h29.204991v29.204991H87.614973z" fill="#FFE0D6" p-id="2586"></path><path d="M116.819964 730.124777h29.204991v29.204991H116.819964z m29.204991 0h29.204992v29.204991H146.024955z" fill="#E0968E" p-id="2587"></path><path d="M175.229947 730.124777h29.204991v29.204991H175.229947z" fill="#FFE0D6" p-id="2588"></path><path d="M204.434938 730.124777h29.204991v29.204991H204.434938z m29.204991 0h29.204991v29.204991H233.639929z" fill="#9C3D40" p-id="2589"></path><path d="M262.84492 730.124777h29.204991v29.204991H262.84492z" fill="#A3595B" p-id="2590"></path><path d="M292.049911 730.124777h29.204991v29.204991h-29.204991z" fill="#FFECCB" p-id="2591"></path><path d="M321.254902 730.124777h29.204991v29.204991h-29.204991z" fill="#9C3D40" p-id="2592"></path><path d="M350.459893 730.124777h29.204991v29.204991h-29.204991z" fill="#FFA8A8" p-id="2593"></path><path d="M379.664884 730.124777h29.204991v29.204991h-29.204991z m29.204991 0h29.204991v29.204991h-29.204991z m29.204991 0h29.204991v29.204991h-29.204991z m29.204991 0h29.204991v29.204991h-29.204991z" fill="#9C3D40" p-id="2594"></path><path d="M496.484848 730.124777h29.204992v29.204991h-29.204992z m29.204992 0h29.204991v29.204991h-29.204991z m29.204991 0h29.204991v29.204991h-29.204991z m29.204991 0h29.204991v29.204991h-29.204991z m29.204991 0h29.204991v29.204991h-29.204991z" fill="#FF9FAF" p-id="2595"></path><path d="M642.509804 730.124777h29.204991v29.204991h-29.204991z" fill="#A3595B" p-id="2596"></path><path d="M671.714795 730.124777h29.204991v29.204991h-29.204991z m29.204991 0h29.204991v29.204991h-29.204991z m29.204991 0h29.204991v29.204991h-29.204991z" fill="#FFE0D6" p-id="2597"></path><path d="M759.329768 730.124777h29.204991v29.204991h-29.204991z m29.204991 0h29.204991v29.204991h-29.204991z" fill="#A3595B" p-id="2598"></path><path d="M817.73975 730.124777h29.204992v29.204991h-29.204992z" fill="#9C3D40" p-id="2599"></path><path d="M846.944742 730.124777h29.204991v29.204991h-29.204991z m29.204991 0h29.204991v29.204991h-29.204991z" fill="#A3595B" p-id="2600"></path><path d="M905.354724 730.124777h29.204991v29.204991h-29.204991z m29.204991 0h29.204991v29.204991h-29.204991z" fill="#FFE0D6" p-id="2601"></path><path d="M29.204991 759.329768h29.204991v29.204991H29.204991z" fill="#DEAEA0" p-id="2602"></path><path d="M58.409982 759.329768h29.204991v29.204991H58.409982z" fill="#A3595B" p-id="2603"></path><path d="M87.614973 759.329768h29.204991v29.204991H87.614973z" fill="#FFE0D6" p-id="2604"></path><path d="M116.819964 759.329768h29.204991v29.204991H116.819964z" fill="#E0968E" p-id="2605"></path><path d="M146.024955 759.329768h29.204992v29.204991H146.024955z m29.204992 0h29.204991v29.204991H175.229947z" fill="#A3595B" p-id="2606"></path><path d="M204.434938 759.329768h29.204991v29.204991H204.434938z" fill="#9C3D40" p-id="2607"></path><path d="M233.639929 759.329768h29.204991v29.204991H233.639929z" fill="#FFECCB" p-id="2608"></path><path d="M262.84492 759.329768h29.204991v29.204991H262.84492z" fill="#9C3D40" p-id="2609"></path><path d="M292.049911 759.329768h29.204991v29.204991h-29.204991z" fill="#FFECCB" p-id="2610"></path><path d="M321.254902 759.329768h29.204991v29.204991h-29.204991z m29.204991 0h29.204991v29.204991h-29.204991z" fill="#9C3D40" p-id="2611"></path><path d="M379.664884 759.329768h29.204991v29.204991h-29.204991z m29.204991 0h29.204991v29.204991h-29.204991z m29.204991 0h29.204991v29.204991h-29.204991z m29.204991 0h29.204991v29.204991h-29.204991z m29.204991 0h29.204992v29.204991h-29.204992z m29.204992 0h29.204991v29.204991h-29.204991z m29.204991 0h29.204991v29.204991h-29.204991z m29.204991 0h29.204991v29.204991h-29.204991z m29.204991 0h29.204991v29.204991h-29.204991z" fill="#FF9FAF" p-id="2612"></path><path d="M642.509804 759.329768h29.204991v29.204991h-29.204991z m29.204991 0h29.204991v29.204991h-29.204991z m29.204991 0h29.204991v29.204991h-29.204991z m29.204991 0h29.204991v29.204991h-29.204991z" fill="#A3595B" p-id="2613"></path><path d="M759.329768 759.329768h29.204991v29.204991h-29.204991z m29.204991 0h29.204991v29.204991h-29.204991z m29.204991 0h29.204992v29.204991h-29.204992z" fill="#FF758C" p-id="2614"></path><path d="M846.944742 759.329768h29.204991v29.204991h-29.204991z" fill="#A3595B" p-id="2615"></path><path d="M876.149733 759.329768h29.204991v29.204991h-29.204991z m29.204991 0h29.204991v29.204991h-29.204991z m29.204991 0h29.204991v29.204991h-29.204991z" fill="#FFE0D6" p-id="2616"></path><path d="M29.204991 788.534759h29.204991v29.204991H29.204991z" fill="#DEAEA0" p-id="2617"></path><path d="M58.409982 788.534759h29.204991v29.204991H58.409982z" fill="#A3595B" p-id="2618"></path><path d="M87.614973 788.534759h29.204991v29.204991H87.614973z" fill="#FFE0D6" p-id="2619"></path><path d="M116.819964 788.534759h29.204991v29.204991H116.819964z" fill="#A3595B" p-id="2620"></path><path d="M146.024955 788.534759h29.204992v29.204991H146.024955z" fill="#DEAEA0" p-id="2621"></path><path d="M175.229947 788.534759h29.204991v29.204991H175.229947z" fill="#A3595B" p-id="2622"></path><path d="M204.434938 788.534759h29.204991v29.204991H204.434938z" fill="#9C3D40" p-id="2623"></path><path d="M233.639929 788.534759h29.204991v29.204991H233.639929z" fill="#FFECCB" p-id="2624"></path><path d="M262.84492 788.534759h29.204991v29.204991H262.84492z m29.204991 0h29.204991v29.204991h-29.204991z m29.204991 0h29.204991v29.204991h-29.204991z m29.204991 0h29.204991v29.204991h-29.204991z m29.204991 0h29.204991v29.204991h-29.204991z" fill="#9C3D40" p-id="2625"></path><path d="M408.869875 788.534759h29.204991v29.204991h-29.204991z m29.204991 0h29.204991v29.204991h-29.204991z m29.204991 0h29.204991v29.204991h-29.204991z m29.204991 0h29.204992v29.204991h-29.204992z m29.204992 0h29.204991v29.204991h-29.204991z m29.204991 0h29.204991v29.204991h-29.204991z m29.204991 0h29.204991v29.204991h-29.204991z m29.204991 0h29.204991v29.204991h-29.204991z m29.204991 0h29.204991v29.204991h-29.204991z m29.204991 0h29.204991v29.204991h-29.204991z m29.204991 0h29.204991v29.204991h-29.204991z" fill="#FF9FAF" p-id="2626"></path><path d="M730.124777 788.534759h29.204991v29.204991h-29.204991z m29.204991 0h29.204991v29.204991h-29.204991z m29.204991 0h29.204991v29.204991h-29.204991z m29.204991 0h29.204992v29.204991h-29.204992z" fill="#FF758C" p-id="2627"></path><path d="M846.944742 788.534759h29.204991v29.204991h-29.204991z" fill="#A3595B" p-id="2628"></path><path d="M876.149733 788.534759h29.204991v29.204991h-29.204991z m29.204991 0h29.204991v29.204991h-29.204991z m29.204991 0h29.204991v29.204991h-29.204991z" fill="#FFE0D6" p-id="2629"></path><path d="M29.204991 817.73975h29.204991v29.204992H29.204991z m29.204991 0h29.204991v29.204992H58.409982z" fill="#DEAEA0" p-id="2630"></path><path d="M87.614973 817.73975h29.204991v29.204992H87.614973z m29.204991 0h29.204991v29.204992H116.819964z" fill="#A3595B" p-id="2631"></path><path d="M146.024955 817.73975h29.204992v29.204992H146.024955z" fill="#DEAEA0" p-id="2632"></path><path d="M175.229947 817.73975h29.204991v29.204992H175.229947z" fill="#9C3D40" p-id="2633"></path><path d="M204.434938 817.73975h29.204991v29.204992H204.434938z" fill="#FFB870" p-id="2634"></path><path d="M233.639929 817.73975h29.204991v29.204992H233.639929z m29.204991 0h29.204991v29.204992H262.84492z" fill="#FFECCB" p-id="2635"></path><path d="M292.049911 817.73975h29.204991v29.204992h-29.204991z" fill="#9C3D40" p-id="2636"></path><path d="M321.254902 817.73975h29.204991v29.204992h-29.204991z m29.204991 0h29.204991v29.204992h-29.204991z" fill="#FFECCB" p-id="2637"></path><path d="M379.664884 817.73975h29.204991v29.204992h-29.204991z" fill="#9C3D40" p-id="2638"></path><path d="M408.869875 817.73975h29.204991v29.204992h-29.204991z m29.204991 0h29.204991v29.204992h-29.204991z m29.204991 0h29.204991v29.204992h-29.204991z m29.204991 0h29.204992v29.204992h-29.204992z m29.204992 0h29.204991v29.204992h-29.204991z m29.204991 0h29.204991v29.204992h-29.204991z m29.204991 0h29.204991v29.204992h-29.204991z" fill="#FF9FAF" p-id="2639"></path><path d="M613.304813 817.73975h29.204991v29.204992h-29.204991z m29.204991 0h29.204991v29.204992h-29.204991z m29.204991 0h29.204991v29.204992h-29.204991z m29.204991 0h29.204991v29.204992h-29.204991z m29.204991 0h29.204991v29.204992h-29.204991z m29.204991 0h29.204991v29.204992h-29.204991z m29.204991 0h29.204991v29.204992h-29.204991z m29.204991 0h29.204992v29.204992h-29.204992z" fill="#FF758C" p-id="2640"></path><path d="M846.944742 817.73975h29.204991v29.204992h-29.204991z" fill="#A3595B" p-id="2641"></path><path d="M876.149733 817.73975h29.204991v29.204992h-29.204991z m29.204991 0h29.204991v29.204992h-29.204991z m29.204991 0h29.204991v29.204992h-29.204991z" fill="#FFE0D6" p-id="2642"></path><path d="M29.204991 846.944742h29.204991v29.204991H29.204991z m29.204991 0h29.204991v29.204991H58.409982z m29.204991 0h29.204991v29.204991H87.614973z m29.204991 0h29.204991v29.204991H116.819964z" fill="#DEAEA0" p-id="2643"></path><path d="M146.024955 846.944742h29.204992v29.204991H146.024955z" fill="#9C3D40" p-id="2644"></path><path d="M175.229947 846.944742h29.204991v29.204991H175.229947z m29.204991 0h29.204991v29.204991H204.434938z" fill="#FFECCB" p-id="2645"></path><path d="M233.639929 846.944742h29.204991v29.204991H233.639929z m29.204991 0h29.204991v29.204991H262.84492z m29.204991 0h29.204991v29.204991h-29.204991z" fill="#FFB870" p-id="2646"></path><path d="M321.254902 846.944742h29.204991v29.204991h-29.204991z" fill="#FFECCB" p-id="2647"></path><path d="M350.459893 846.944742h29.204991v29.204991h-29.204991z" fill="#9C3D40" p-id="2648"></path><path d="M379.664884 846.944742h29.204991v29.204991h-29.204991z m29.204991 0h29.204991v29.204991h-29.204991z m29.204991 0h29.204991v29.204991h-29.204991z m29.204991 0h29.204991v29.204991h-29.204991z m29.204991 0h29.204992v29.204991h-29.204992z m29.204992 0h29.204991v29.204991h-29.204991z m29.204991 0h29.204991v29.204991h-29.204991z m29.204991 0h29.204991v29.204991h-29.204991z m29.204991 0h29.204991v29.204991h-29.204991z m29.204991 0h29.204991v29.204991h-29.204991z m29.204991 0h29.204991v29.204991h-29.204991z m29.204991 0h29.204991v29.204991h-29.204991z m29.204991 0h29.204991v29.204991h-29.204991z m29.204991 0h29.204991v29.204991h-29.204991z m29.204991 0h29.204991v29.204991h-29.204991z m29.204991 0h29.204992v29.204991h-29.204992z" fill="#FF758C" p-id="2649"></path><path d="M846.944742 846.944742h29.204991v29.204991h-29.204991z" fill="#A3595B" p-id="2650"></path><path d="M876.149733 846.944742h29.204991v29.204991h-29.204991z m29.204991 0h29.204991v29.204991h-29.204991z m29.204991 0h29.204991v29.204991h-29.204991z" fill="#FFE0D6" p-id="2651"></path><path d="M29.204991 876.149733h29.204991v29.204991H29.204991z m29.204991 0h29.204991v29.204991H58.409982z m29.204991 0h29.204991v29.204991H87.614973z m29.204991 0h29.204991v29.204991H116.819964z" fill="#DEAEA0" p-id="2652"></path><path d="M146.024955 876.149733h29.204992v29.204991H146.024955z m29.204992 0h29.204991v29.204991H175.229947z m29.204991 0h29.204991v29.204991H204.434938z" fill="#9C3D40" p-id="2653"></path><path d="M233.639929 876.149733h29.204991v29.204991H233.639929z" fill="#FFB870" p-id="2654"></path><path d="M262.84492 876.149733h29.204991v29.204991H262.84492z m29.204991 0h29.204991v29.204991h-29.204991z" fill="#FFECCB" p-id="2655"></path><path d="M321.254902 876.149733h29.204991v29.204991h-29.204991z" fill="#9C3D40" p-id="2656"></path><path d="M350.459893 876.149733h29.204991v29.204991h-29.204991z m29.204991 0h29.204991v29.204991h-29.204991z m29.204991 0h29.204991v29.204991h-29.204991z m29.204991 0h29.204991v29.204991h-29.204991z" fill="#FF758C" p-id="2657"></path><path d="M467.279857 876.149733h29.204991v29.204991h-29.204991z m29.204991 0h29.204992v29.204991h-29.204992z m29.204992 0h29.204991v29.204991h-29.204991z m29.204991 0h29.204991v29.204991h-29.204991z m29.204991 0h29.204991v29.204991h-29.204991z m29.204991 0h29.204991v29.204991h-29.204991z m29.204991 0h29.204991v29.204991h-29.204991z m29.204991 0h29.204991v29.204991h-29.204991z m29.204991 0h29.204991v29.204991h-29.204991z m29.204991 0h29.204991v29.204991h-29.204991z m29.204991 0h29.204991v29.204991h-29.204991z" fill="#FF9FAF" p-id="2658"></path><path d="M788.534759 876.149733h29.204991v29.204991h-29.204991z" fill="#FF758C" p-id="2659"></path><path d="M817.73975 876.149733h29.204992v29.204991h-29.204992z" fill="#A3595B" p-id="2660"></path><path d="M846.944742 876.149733h29.204991v29.204991h-29.204991z m29.204991 0h29.204991v29.204991h-29.204991z m29.204991 0h29.204991v29.204991h-29.204991z m29.204991 0h29.204991v29.204991h-29.204991z" fill="#FFE0D6" p-id="2661"></path><path d="M29.204991 905.354724h29.204991v29.204991H29.204991z m29.204991 0h29.204991v29.204991H58.409982z m29.204991 0h29.204991v29.204991H87.614973z m29.204991 0h29.204991v29.204991H116.819964z" fill="#DEAEA0" p-id="2662"></path><path d="M146.024955 905.354724h29.204992v29.204991H146.024955z" fill="#9C3D40" p-id="2663"></path><path d="M175.229947 905.354724h29.204991v29.204991H175.229947z m29.204991 0h29.204991v29.204991H204.434938z" fill="#FFF5F5" p-id="2664"></path><path d="M233.639929 905.354724h29.204991v29.204991H233.639929z" fill="#9C3D40" p-id="2665"></path><path d="M262.84492 905.354724h29.204991v29.204991H262.84492z m29.204991 0h29.204991v29.204991h-29.204991z" fill="#FFECCB" p-id="2666"></path><path d="M321.254902 905.354724h29.204991v29.204991h-29.204991z" fill="#9C3D40" p-id="2667"></path><path d="M350.459893 905.354724h29.204991v29.204991h-29.204991z" fill="#FF758C" p-id="2668"></path><path d="M379.664884 905.354724h29.204991v29.204991h-29.204991z m29.204991 0h29.204991v29.204991h-29.204991z m29.204991 0h29.204991v29.204991h-29.204991z m29.204991 0h29.204991v29.204991h-29.204991z m29.204991 0h29.204992v29.204991h-29.204992z m29.204992 0h29.204991v29.204991h-29.204991z m29.204991 0h29.204991v29.204991h-29.204991z m29.204991 0h29.204991v29.204991h-29.204991z m29.204991 0h29.204991v29.204991h-29.204991z m29.204991 0h29.204991v29.204991h-29.204991z m29.204991 0h29.204991v29.204991h-29.204991z m29.204991 0h29.204991v29.204991h-29.204991z m29.204991 0h29.204991v29.204991h-29.204991z m29.204991 0h29.204991v29.204991h-29.204991z m29.204991 0h29.204991v29.204991h-29.204991z" fill="#FF9FAF" p-id="2669"></path><path d="M817.73975 905.354724h29.204992v29.204991h-29.204992z" fill="#A3595B" p-id="2670"></path><path d="M846.944742 905.354724h29.204991v29.204991h-29.204991z m29.204991 0h29.204991v29.204991h-29.204991z m29.204991 0h29.204991v29.204991h-29.204991z m29.204991 0h29.204991v29.204991h-29.204991z" fill="#FFE0D6" p-id="2671"></path><path d="M29.204991 934.559715h29.204991v29.204991H29.204991z m29.204991 0h29.204991v29.204991H58.409982z m29.204991 0h29.204991v29.204991H87.614973z" fill="#DEAEA0" p-id="2672"></path><path d="M116.819964 934.559715h29.204991v29.204991H116.819964z" fill="#9C3D40" p-id="2673"></path><path d="M146.024955 934.559715h29.204992v29.204991H146.024955z m29.204992 0h29.204991v29.204991H175.229947z" fill="#FFF5F5" p-id="2674"></path><path d="M204.434938 934.559715h29.204991v29.204991H204.434938z m29.204991 0h29.204991v29.204991H233.639929z" fill="#FFA8A8" p-id="2675"></path><path d="M262.84492 934.559715h29.204991v29.204991H262.84492z" fill="#9C3D40" p-id="2676"></path><path d="M292.049911 934.559715h29.204991v29.204991h-29.204991z" fill="#FFECCB" p-id="2677"></path><path d="M321.254902 934.559715h29.204991v29.204991h-29.204991z" fill="#9C3D40" p-id="2678"></path><path d="M350.459893 934.559715h29.204991v29.204991h-29.204991z m29.204991 0h29.204991v29.204991h-29.204991z m29.204991 0h29.204991v29.204991h-29.204991z m29.204991 0h29.204991v29.204991h-29.204991z m29.204991 0h29.204991v29.204991h-29.204991z m29.204991 0h29.204992v29.204991h-29.204992z m29.204992 0h29.204991v29.204991h-29.204991z m29.204991 0h29.204991v29.204991h-29.204991z m29.204991 0h29.204991v29.204991h-29.204991z m29.204991 0h29.204991v29.204991h-29.204991z m29.204991 0h29.204991v29.204991h-29.204991z m29.204991 0h29.204991v29.204991h-29.204991z m29.204991 0h29.204991v29.204991h-29.204991z m29.204991 0h29.204991v29.204991h-29.204991z m29.204991 0h29.204991v29.204991h-29.204991z" fill="#FF9FAF" p-id="2679"></path><path d="M788.534759 934.559715h29.204991v29.204991h-29.204991z" fill="#A3595B" p-id="2680"></path><path d="M817.73975 934.559715h29.204992v29.204991h-29.204992z m29.204992 0h29.204991v29.204991h-29.204991z m29.204991 0h29.204991v29.204991h-29.204991z m29.204991 0h29.204991v29.204991h-29.204991z m29.204991 0h29.204991v29.204991h-29.204991z" fill="#FFE0D6" p-id="2681"></path>
  </g>
</svg>